<?xml version="1.0" encoding="UTF-8"?>
<svg id="_레이어_1" xmlns="http://www.w3.org/2000/svg" version="1.1" viewBox="0 0 512 512">
  <!-- Generator: Adobe Illustrator 30.1.0, SVG Export Plug-In . SVG Version: 2.1.1 Build 136)  -->
  <path d="M95.17,355.22l262.28-70.28c34.97-9.37,60.66,16.57,77.07,77.81l8.2,30.62,34.97-9.37-8.2-30.62c-27.35-102.07-70.17-145.3-128.45-129.69l-262.28,70.28s16.41,61.24,16.41,61.24ZM416.83,156.78l-262.28,70.28c-34.97,9.37-60.66-16.57-77.07-77.81l-8.2-30.62-34.97,9.37,8.2,30.62c27.35,102.08,70.16,145.3,128.45,129.68l262.28-70.28-16.41-61.24ZM156.78,95.17l70.28,262.28c9.37,34.97-16.57,60.66-77.81,77.07l-30.62,8.2,9.37,34.97,30.62-8.2c102.07-27.35,145.3-70.17,129.69-128.45L218.02,78.77s-61.24,16.41-61.24,16.41ZM355.22,416.83l-70.28-262.28c-9.37-34.97,16.57-60.66,77.81-77.07l30.62-8.2-9.37-34.97-30.62,8.2c-102.07,27.35-145.3,70.17-129.69,128.45l70.28,262.28,61.24-16.41h0Z"/>
</svg>